<svg width="58px" height="62px" viewBox="0 0 58 62" version="1.1" xmlns="http://www.w3.org/2000/svg" xmlns:xlink="http://www.w3.org/1999/xlink">
    <g id="Page-1" stroke="none" stroke-width="1" fill="none" fill-rule="evenodd">
        <path d="M57.6,16.7 C57.2,16.3 56.6,16 56,16 L46.6,16 C46,7.1 38.5,0.2 29.6,0.2 L28.4,0.2 C19.5,0.2 12,7.1 11.4,16 L2,16 C1.4,16 0.8,16.3 0.4,16.7 C0.1,17.2 -0.1,17.8 8.60422844e-15,18.4 C0.1,18.7 5.5,45.8 7.5,56.2 C8.2,59.5 11.1,61.8 14.4,61.8 L43.6,61.8 C47,61.9 49.9,59.5 50.5,56.2 L58,18.4 C58.1,17.8 57.9,17.2 57.6,16.7 Z M28.4,4.2 L29.6,4.2 C36.3,4.2 42,9.3 42.6,16 L15.4,16 C16,9.3 21.7,4.2 28.4,4.2 Z M46.6,55.4 C46.3,56.8 45,57.8 43.6,57.8 L14.4,57.8 C13,57.8 11.7,56.8 11.5,55.4 L4.4,20 L53.6,20 L46.6,55.4 Z" id="Shape" fill="#36213E" fill-rule="nonzero"></path>
    </g>
</svg>
