<svg width="88px" height="88px" viewBox="0 0 88 88" version="1.1" xmlns="http://www.w3.org/2000/svg" xmlns:xlink="http://www.w3.org/1999/xlink">
    <g id="Page-1" stroke="none" stroke-width="1" fill="none" fill-rule="evenodd">
        <g id="noun_checkmark_1579005" transform="translate(0.000000, -1.000000)" fill="#36213E" fill-rule="nonzero">
            <g id="Group" transform="translate(0.000000, 0.637820)">
                <path d="M44,0.36218 C19.723161,0.36218 0,20.08538 0,44.36218 C0,68.63908 19.723161,88.36218 44,88.36218 C68.276838,88.36218 88,68.63908 88,44.36218 C88,20.08538 68.276838,0.36218 44,0.36218 Z M44,4.36218 C66.115079,4.36218 84,22.24714 84,44.36218 C84,66.47728 66.115079,84.36218 44,84.36218 C21.884921,84.36218 4,66.47728 4,44.36218 C4,22.24714 21.884921,4.36218 44,4.36218 Z M65.1875,27.33093 C64.6650994,27.35156 64.1715394,27.5759055 63.8125,27.95593 L38,54.48718 L26.6875,42.86218 C26.1928689,42.3386879 25.4549948,42.1215334 24.7556503,42.2936417 C24.0563058,42.4657499 23.5034856,43.0005434 23.3082956,43.6938 C23.1131056,44.3870567 23.3056875,45.131722 23.8125,45.64343 L36.5625,58.73718 C36.939329,59.1266553 37.4580672,59.3465554 38,59.3465554 C38.5419328,59.3465554 39.060671,59.1266553 39.4375,58.73718 L66.6875,30.73718 C67.2657295,30.1534212 67.4281412,29.2754263 67.0969962,28.5234512 C66.7658512,27.771476 66.0085191,27.2985059 65.1875,27.33093 Z" id="Shape"></path>
            </g>
        </g>
    </g>
</svg>
