<svg width="19px" height="33px" viewBox="0 0 19 33" >
    <g id="Page-1" stroke="none" stroke-width="1" fill="none" fill-rule="evenodd">
        <path d="M0,33 C1.1746687,30.9952633 2.6510981,27.935228 3.313373,23.9972933 C3.9976305,19.9266193 3.3649322,17.5712191 3.4768434,15.3787452 C3.6722885,11.5284764 6.2618354,6.21766099 17.0340947,0 C17.7946917,1.60775911 19.7835149,6.34833277 18.6675996,12.3369046 C18.3666382,13.9516935 17.1272209,19.444457 12.2974501,23.4907334 C10.3745746,25.1009736 8.4800767,25.9821811 7.1775094,26.4701327 C8.6467445,25.1009736 11.1727418,22.384572 12.8837852,18.1393933 C14.6987463,13.6353521 14.6975472,9.63911131 14.5592569,7.57358746 C13.9669265,10.2155558 13.0744341,13.2098417 11.7087169,16.3811135 C8.303017,24.2904778 3.50642,29.7100485 0,33" id="Fill-9" fill="#4B2773"></path>
    </g>
</svg>
