
<svg width="175px" height="33px" viewBox="0 0 175 33" version="1.1" xmlns="http://www.w3.org/2000/svg" xmlns:xlink="http://www.w3.org/1999/xlink">
    <g id="Page-1" stroke="none" stroke-width="1" fill="none" fill-rule="evenodd">
        <g id="Logo-/-Purple" fill="#4B2773">
            <g id="purple_thick_full">
                <path d="M113.765792,18.7493602 C113.414803,18.7876834 113.063382,18.8260067 112.790103,18.8260067 C112.087693,18.8260067 111.697418,18.44488 111.697418,17.7217921 C111.697418,16.8841556 112.205121,15.9702938 112.829389,15.6279115 C113.531799,15.2093038 116.614716,14.8285983 119.034079,14.8285983 C120.166051,14.8285983 120.517471,15.0568532 120.517471,15.8944896 C120.517471,17.7596942 120.049054,18.2166251 118.136532,18.2166251 C117.941394,18.2166251 117.824398,18.2928504 117.824398,18.4069779 C117.824398,18.4832032 117.824398,18.4832032 118.370956,18.8260067 C118.566094,18.9780362 118.721945,19.2825164 118.721945,19.5486734 C118.721945,20.5766627 117.55155,23.2416016 116.458433,24.6881985 C114.819622,26.8578833 112.946386,28 110.995008,28 C108.029519,28 106,25.1068062 106,20.9194661 C106,16.6559007 107.248536,11.9733066 109.512048,7.97631928 C111.619276,4.1696848 114.624484,2 117.62926,2 C120.400043,2 122,3.78897923 122,6.87252583 C122,7.97631928 121.649011,9.08053387 121.141739,9.53704364 C120.86846,9.84194499 120.166051,9.99397454 119.18993,9.99397454 C118.331669,9.99397454 117.863252,9.80362176 117.863252,9.4608183 C117.863252,9.23256341 117.941394,8.89018109 118.136532,8.47157342 C118.370956,7.86219184 118.526807,7.17700606 118.526807,6.56762448 C118.526807,5.92076193 118.097677,5.54005637 117.317558,5.54005637 C115.560886,5.54005637 113.68765,7.2911335 112.048838,10.5271308 C110.527023,13.5340309 109.512048,17.68389 109.512048,20.9194661 C109.512048,22.9750235 110.253744,24.3453951 111.346429,24.3453951 C112.165835,24.3453951 112.790103,23.8122388 113.726937,22.366063 C114.585197,21.0335936 115.053614,19.9298001 115.44389,18.5211053 C114.702625,18.6352328 114.11678,18.7114581 113.765792,18.7493602" id="Fill-1"></path>
                <path d="M140,3.48626859 C140,3.71528217 139.962801,3.9822538 139.889221,4.28676172 C139.741243,4.85908479 139.593674,5.5069022 139.445696,6.11676156 C139.076161,7.60387367 138.743824,9.12894383 138.373879,10.6535922 C137.782785,13.1318312 135.971896,19.7656334 135.381212,21.6331695 C134.124626,25.6744367 131.649064,28 128.693186,28 C125.847679,28 124,25.9414083 124,22.8153519 C124,20.7947183 124.369945,18.7740847 125.958458,12.2166204 C127.215043,7.10831022 128.249661,3.40993073 128.655987,2.72373352 C128.914744,2.26612812 129.136302,2.11387415 129.653407,2.11387415 C130.725633,2.11387415 131.685854,2.72373352 131.685854,3.44831054 C131.685854,3.71528217 131.611865,4.13450776 131.464296,4.55373335 C131.242329,5.27831038 131.242329,5.27831038 130.540456,7.90880335 C130.244909,9.01422616 129.949363,10.0821127 129.653407,11.1495774 C129.32107,12.3692962 128.877545,14.237254 128.397231,16.4864795 C128.102092,17.8209159 127.916916,18.6977468 127.806137,19.0410563 C127.51059,20.3754927 127.288623,21.7858452 127.288623,22.5100005 C127.288623,23.730141 127.953706,24.5690139 128.951943,24.5690139 C130.244909,24.5690139 131.09476,23.6158451 131.944611,21.2523237 C132.314146,20.2607751 133.237986,17.0204227 134.161825,13.4751407 C134.60535,11.7973948 135.011676,10.2343666 135.159245,9.66288708 C135.898316,6.99359255 135.898316,6.95605626 136.785366,3.40993073 C137.006924,2.30450792 137.22889,2 137.967553,2 C139.038962,2 140,2.72373352 140,3.48626859" id="Fill-3"></path>
                <path d="M147.502225,4.93189002 C148.352204,5.34409427 148.611,5.56863166 148.611,5.86856722 C148.611,6.317642 148.426204,6.99166846 148.130613,7.77796361 C147.871816,8.45199006 145.875857,15.0804002 145.875857,15.3426366 C145.875857,15.3799214 145.875857,15.3799214 145.913061,15.3799214 C146.134653,15.3799214 146.134653,15.3799214 148.019817,13.5073956 C149.608571,13.320143 150.458551,12.9833369 151.530531,12.1216436 C152.971694,10.9612576 153.747673,9.3132691 153.747673,7.59071102 C153.747673,5.34409427 152.491306,4.29556265 149.867367,4.29556265 C148.832592,4.29556265 148.315,4.37054654 147.539429,4.67006782 L147.502225,4.93189002 Z M143.621919,23.9931261 C143.104326,25.9025225 142.956735,26.0897751 142.106755,26.0897751 C140.813184,26.0897751 140,25.6779851 140,25.0039586 C140,24.7417222 140.074,24.3299322 140.221592,23.9181422 C140.295592,23.6931905 140.443592,23.0191641 140.702388,21.9706325 C140.813184,21.5965416 141.145571,20.3603431 141.626368,18.5628011 C141.885164,17.6269525 142.254347,16.2788996 142.660734,14.6309111 C143.91751,9.80045724 144.065511,9.35096818 145.506674,5.23182557 C145.100286,5.41907816 144.730694,5.60633075 144.61949,5.64361555 C144.250307,5.83086814 143.954306,5.94313683 143.84351,6.01812072 C143.584714,6.13038942 143.400327,6.20537331 143.251918,6.20537331 C142.956735,6.20537331 142.660734,5.83086814 142.660734,5.45636297 C142.660734,4.93189002 142.993531,3.6215362 143.289122,3.09706325 C143.621919,2.49802068 144.324307,2.12351551 145.949857,1.67444073 C147.871816,1.14996778 148.648205,1 149.830572,1 C151.937327,1 153.932878,1.56175776 155.07804,2.53530549 C156.408817,3.6215362 157,5.04415871 157,7.21662012 C157,11.6725688 153.969265,15.567174 149.571776,16.6906895 C149.313388,16.7652592 149.238979,16.840243 149.238979,16.9902108 C149.238979,17.3274312 150.014959,18.637785 153.895674,25.0789425 C154.228061,25.6407003 154.376061,26.0152055 154.376061,26.2770276 C154.376061,27.026038 153.119694,28 152.158919,28 C151.826123,28 151.38253,27.5505109 150.938938,26.6892319 C150.902143,26.614248 150.495755,25.9402216 150.088959,25.3034799 C148.869796,23.505938 147.502225,21.1470525 145.432674,17.3274312 L143.621919,23.9931261 Z" id="Fill-5"></path>
                <path d="M175,3.48626859 C175,3.71528217 174.962801,3.9822538 174.889221,4.28676172 C174.741243,4.85908479 174.593674,5.5069022 174.445696,6.11676156 C174.076161,7.60387367 173.743824,9.12894383 173.373879,10.6535922 C172.782785,13.1318312 170.972305,19.7656334 170.380803,21.6331695 C169.124626,25.6744367 166.649064,28 163.693186,28 C160.847679,28 159,25.9414083 159,22.8153519 C159,20.7947183 159.369945,18.7740847 160.958458,12.2166204 C162.215043,7.10831022 163.249661,3.40993073 163.655987,2.72373352 C163.914744,2.26612812 164.136302,2.11387415 164.653407,2.11387415 C165.725633,2.11387415 166.685854,2.72373352 166.685854,3.44831054 C166.685854,3.71528217 166.611865,4.13450776 166.464296,4.55373335 C166.242738,5.27831038 166.242738,5.27831038 165.540456,7.90880335 C165.244909,9.01422616 164.949363,10.0821127 164.653407,11.1495774 C164.32107,12.3692962 163.877954,14.237254 163.397231,16.4864795 C163.102092,17.8209159 162.916916,18.6977468 162.806137,19.0410563 C162.51059,20.3754927 162.288623,21.7858452 162.288623,22.5100005 C162.288623,23.730141 162.953706,24.5690139 163.951943,24.5690139 C165.244909,24.5690139 166.09476,23.6158451 166.944611,21.2523237 C167.314146,20.2607751 168.237986,17.0204227 169.161825,13.4751407 C169.60535,11.7973948 170.011676,10.2343666 170.159245,9.66288708 C170.898316,6.99359255 170.898316,6.95605626 171.785366,3.40993073 C172.006924,2.30450792 172.22889,2 172.967553,2 C174.038962,2 175,2.72373352 175,3.48626859" id="Fill-7"></path>
                <path d="M78,33 C79.1746687,30.9952633 80.6510981,27.935228 81.313373,23.9972933 C81.9976305,19.9266193 81.3649322,17.5712191 81.4768434,15.3787452 C81.6722885,11.5284764 84.2618354,6.21766099 95.0340947,0 C95.7946917,1.60775911 97.7835149,6.34833277 96.6675996,12.3369046 C96.3666382,13.9516935 95.1272209,19.444457 90.2974501,23.4907334 C88.3745746,25.1009736 86.4800767,25.9821811 85.1775094,26.4701327 C86.6467445,25.1009736 89.1727418,22.384572 90.8837852,18.1393933 C92.6987463,13.6353521 92.6975472,9.63911131 92.5592569,7.57358746 C91.9669265,10.2155558 91.0744341,13.2098417 89.7087169,16.3811135 C86.303017,24.2904778 81.50642,29.7100485 78,33" id="Fill-9"></path>
                <path d="M8.99232451,23.2745525 C9.68997899,23.2745525 10,23.507232 10,24.08936 C10,25.0205072 9.4185498,26.3015323 8.79850778,26.6891883 C8.41087432,26.9222971 7.71321984,27 6.04648171,27 L3.02345525,27 C1.4729214,27 1.04626731,26.8445941 0.620042022,26.2238293 C0.232408559,25.6417013 0,24.9432336 0,24.4388085 C0,23.8953174 0.155224905,23.0414438 0.464817118,21.95532 C0.503837743,21.95532 0.891471206,20.4029787 1.24008404,19.0060432 C2.71300545,12.9520837 4.2635393,7.48068159 5.93027743,2.63004425 C6.35693152,1.34944852 6.66652373,1 7.32558638,1 C8.44946615,1 9.53518288,1.62119411 9.53518288,2.20289281 C9.53518288,2.63004425 9.53518288,2.66868106 8.83752841,4.91949013 C6.70554436,11.7491909 6.62793191,12.0595733 3.79829338,23.2745525 L8.99232451,23.2745525 Z" id="Fill-11"></path>
                <path d="M18.7329219,9.3362985 C16.8415106,12.1869673 15.4802804,16.9383623 15.4802804,20.777661 C15.4802804,22.9824193 16.2745057,24.4651539 17.4846741,24.4651539 C20.8134742,24.4651539 24.4824772,16.9005159 24.4824772,10.0204758 C24.4824772,8.42378172 24.330997,7.35987967 23.8769746,5.42088664 C22.0236426,5.64880558 20.3975311,6.86535445 18.7329219,9.3362985 M26.9413119,4.88893561 C27.5840569,5.26908085 28,7.0936939 28,9.56421744 C28,14.1633861 26.8274924,18.6490158 24.5582174,22.7162335 C22.591066,26.175387 20.0945706,28 17.2197929,28 C14.0805524,28 12,25.1493312 12,20.8916204 C12,17.3567743 13.3239879,12.1869673 14.9881787,9.07011273 C16.3498274,6.52347604 18.0897583,4.50879037 19.8677686,3.40620097 C21.2294173,2.53195103 22.7802071,2 23.9150539,2 C24.7850194,2 25.2390417,2.41799156 25.2390417,3.14043572 C25.2390417,3.36877517 25.2390417,3.36877517 25.1256408,4.62274984 C26.0332671,4.62274984 26.6383513,4.69886299 26.9413119,4.88893561" id="Fill-13"></path>
                <path d="M33.5154562,21.6993491 C33.5154562,23.5213101 34.0232203,24.5080831 34.9216387,24.5080831 C35.3516176,24.5080831 35.8593818,24.2427042 36.3278212,23.8249003 C37.6951111,22.5341172 37.9686555,22.1549444 39.7654922,18.6630275 C40.0779292,18.0554273 40.4685834,17.752257 40.937455,17.752257 C41.9529832,17.752257 43.0467287,18.3594373 43.0467287,18.9284065 C43.0467287,19.9916019 41.6012215,22.799916 40.1561465,24.5458744 C38.2810924,26.8234306 36.2889286,28 34.2967647,28 C31.7186195,28 30,25.5330674 30,21.813143 C30,16.8028553 31.6792947,10.7297921 34.062545,7.01028763 C36.2107113,3.66995591 38.5935294,2 41.1716747,2 C43.5933854,2 45,3.59437329 45,6.44089859 C45,7.95884946 44.4918038,9.81902163 43.9451471,10.3884107 C43.7498199,10.578207 43.4762755,10.6537896 43.0078361,10.6537896 C41.8358734,10.6537896 41.0934574,10.1986143 41.0934574,9.47764014 C41.0934574,9.21184128 41.0934574,9.21184128 41.5234364,7.42809154 C41.5623289,7.20008398 41.6012215,6.93428511 41.6012215,6.59248373 C41.6012215,5.75771573 41.249892,5.30212051 40.625018,5.30212051 C37.5780012,5.30212051 33.5154562,14.6395129 33.5154562,21.6993491" id="Fill-15"></path>
                <path d="M53.7692111,15.4915011 C53.7309165,15.0654192 53.7309165,14.5617509 53.7309165,14.0966614 C53.7309165,12.5470777 53.8845205,7.85846179 53.9998298,5.88236749 C53.6539018,6.81211771 53.4232831,7.39337235 53.3462684,7.58755255 C52.6922815,9.02097107 52.0382946,10.4543896 51.4230278,11.8882367 L50.4997022,14.0190751 L49.6155221,15.8018465 C49.576802,15.8790042 49.5385074,15.9565906 49.5385074,15.9955981 C49.5385074,16.1113346 49.6155221,16.1503421 49.769126,16.1503421 L53.3079738,16.1503421 C53.6921964,16.1503421 53.7692111,16.0727557 53.7692111,15.6852527 L53.7692111,15.4915011 Z M53.7309165,17.6227681 C52.8075908,19.4826972 52.6535614,19.5602836 50.6537316,19.5988624 L47.9229002,19.5988624 L45.2690835,26.0698211 C45.0384648,26.6506471 44.6150966,27 44.1538592,27 C43.1535188,27 42,26.2635727 42,25.6047317 C42,25.2948149 42.1536039,24.7135603 42.3846481,24.0932982 L43.9615352,20.2577034 C44.0381244,19.9863655 44.1155646,19.8311928 44.1155646,19.792614 C44.1155646,19.7154563 44.0768445,19.6764488 43.6151817,19.4051109 C43.4998724,19.3275245 43.4228576,19.133773 43.4228576,18.9404501 C43.4228576,18.3587668 43.6539018,17.4294452 43.9615352,16.7701756 C44.1538592,16.42168 44.423198,16.2669359 44.8461408,16.2669359 L44.8844354,16.2669359 L45.1537741,16.2669359 L45.3843928,16.2669359 C45.6537316,16.2669359 45.6537316,16.2669359 46.5000425,14.290413 L48.1152242,10.9970654 L49.769126,7.54854505 C52.6535614,2.04634408 52.6535614,2.04634408 53.2692537,1.34892424 C53.4615777,1.1551727 53.8075057,1 54.0768445,1 C54.7308314,1 55.8460557,1.42608194 56.4230278,1.89117138 C56.8459706,2.20151678 56.8459706,2.20151678 57,4.71985821 L56.9612799,25.3724013 C56.9612799,26.4183167 56.5770573,26.767241 55.4614075,26.767241 C54.1151391,26.767241 53.5768871,26.3021515 53.6151817,25.1400709 L53.7309165,17.6227681 Z" id="Fill-17"></path>
                <path d="M70.9923245,23.2745525 C71.689979,23.2745525 72,23.507232 72,24.08936 C72,25.0205072 71.4185498,26.3015323 70.7985078,26.6891883 C70.4108743,26.9222971 69.7132198,27 68.0464817,27 L65.0234553,27 C63.4729214,27 63.0462673,26.8445941 62.620042,26.2238293 C62.2324086,25.6417013 62,24.9432336 62,24.4388085 C62,23.8953174 62.1547961,23.0414438 62.4652459,21.95532 C62.5038377,21.95532 62.8914712,20.4029787 63.240084,19.0060432 C64.7130054,12.9520837 66.2635393,7.48068159 67.9302774,2.63004425 C68.3565027,1.34944852 68.6669525,1 69.3255864,1 C70.4494661,1 71.5351829,1.62119411 71.5351829,2.20289281 C71.5351829,2.63004425 71.5351829,2.66868106 70.8370996,4.91949013 C68.7055444,11.7491909 68.6279319,12.0595733 65.7982934,23.2745525 L70.9923245,23.2745525 Z" id="Fill-19"></path>
            </g>
        </g>
    </g>
</svg>
